<?xml version="1.0" standalone="no"?>
<!DOCTYPE svg PUBLIC "-//W3C//DTD SVG 20010904//EN"
 "http://www.w3.org/TR/2001/REC-SVG-20010904/DTD/svg10.dtd">
<svg version="1.0" xmlns="http://www.w3.org/2000/svg"
 width="288.000000pt" height="162.000000pt" viewBox="0 0 288.000000 162.000000"
 preserveAspectRatio="xMidYMid meet">

<g transform="translate(0.000000,162.000000) scale(0.100000,-0.100000)"
fill="#000000" stroke="none">
<path d="M0 1460 c0 -121 3 -160 13 -160 27 0 36 18 39 75 l3 60 85 0 c83 0
85 -1 88 -25 9 -90 14 -110 28 -110 12 0 14 27 14 160 0 152 -1 160 -20 160
-17 0 -19 -8 -22 -67 l-3 -68 -73 -3 c-93 -4 -102 3 -102 79 0 56 -1 59 -25
59 l-25 0 0 -160z"/>
<path d="M559 1498 c-2 -154 -1 -180 10 -191 24 -24 31 10 31 159 0 147 -1
154 -20 154 -19 0 -20 -7 -21 -122z"/>
<path d="M830 1612 c0 -17 26 -32 56 -32 18 0 36 -6 41 -12 4 -7 10 -69 13
-138 4 -102 8 -125 20 -125 12 0 16 23 20 125 3 69 9 131 13 138 5 6 23 12 42
12 28 0 65 20 65 36 0 2 -61 4 -135 4 -74 0 -135 -4 -135 -8z"/>
<path d="M1580 1612 c0 -17 26 -32 56 -32 17 0 36 -6 42 -13 7 -8 13 -67 14
-138 3 -116 4 -124 23 -124 19 0 20 8 25 135 l5 135 25 3 c50 5 68 12 74 27 5
13 -13 15 -129 15 -74 0 -135 -4 -135 -8z"/>
<path d="M2070 1465 c0 -131 2 -157 15 -162 24 -9 30 3 35 70 l5 62 90 0 90 0
3 -68 c2 -58 6 -68 20 -65 15 3 17 22 20 161 2 152 2 157 -18 157 -18 0 -20
-6 -20 -54 0 -85 -1 -86 -89 -86 -47 0 -82 5 -89 12 -7 7 -12 38 -12 70 0 55
-1 58 -25 58 l-25 0 0 -155z"/>
<path d="M2632 1463 l3 -158 99 -5 c104 -5 123 -1 113 24 -5 12 -25 16 -89 18
l-83 3 0 45 0 45 65 3 c83 3 96 8 80 27 -7 9 -36 15 -78 17 l-67 3 0 45 0 45
85 5 c70 4 85 8 88 23 3 15 -7 17 -108 17 l-111 0 3 -157z"/>
<path d="M1417 1110 c-31 -24 -36 -60 -9 -61 64 -3 84 -15 80 -50 -3 -30 -6
-32 -78 -50 -41 -11 -91 -27 -110 -36 -69 -35 -142 -98 -178 -152 -44 -68 -59
-105 -79 -196 -32 -144 19 -306 131 -419 56 -57 153 -116 189 -116 7 0 22 -7
33 -15 28 -21 266 -21 284 0 7 8 20 15 30 15 31 0 134 61 183 109 129 123 179
320 123 489 -51 157 -160 261 -330 316 -27 9 -60 16 -72 16 -26 0 -32 12 -26
52 3 22 11 30 33 35 34 7 62 35 57 60 -3 16 -16 18 -119 21 -105 2 -118 1
-142 -18z m38 -415 c22 -44 54 -109 70 -145 l30 -65 130 -6 c72 -3 131 -7 133
-8 12 -5 -14 -21 -36 -21 -21 0 -24 -2 -12 -10 10 -7 -24 -10 -106 -10 -138 0
-139 1 -172 85 -11 28 -41 92 -66 144 -50 103 -55 124 -28 119 10 -2 33 -35
57 -83z"/>
<path d="M0 515 l0 -436 23 -23 c12 -13 37 -28 56 -35 52 -17 360 -14 450 4
178 38 300 133 357 281 15 40 19 75 19 184 l-1 135 -38 72 c-61 117 -182 210
-306 236 -25 5 -161 11 -302 14 l-258 4 0 -436z m500 275 c151 -35 241 -149
242 -304 1 -162 -94 -282 -250 -315 -75 -16 -298 -15 -309 2 -9 13 -14 543 -6
594 4 25 10 32 32 35 62 7 241 0 291 -12z"/>
<path d="M2139 927 c-38 -25 -61 -89 -40 -110 8 -8 59 -13 146 -13 73 -1 138
-5 144 -9 8 -4 11 -119 11 -359 0 -336 1 -355 20 -378 25 -32 99 -55 129 -39
11 7 21 15 21 19 0 4 2 174 3 379 1 204 5 374 9 378 4 4 49 8 100 10 51 1 103
3 115 4 12 0 35 13 52 27 26 22 31 33 31 70 l0 44 -354 0 c-350 0 -353 0 -387
-23z"/>
</g>
</svg>
